<mxfile host="app.diagrams.net" modified="2024-03-09T21:23:17.370Z" agent="Mozilla/5.0 (Windows NT 10.0; Win64; x64) AppleWebKit/537.36 (KHTML, like Gecko) Chrome/122.0.0.0 Safari/537.36" etag="bsswYpX8I7KO6ZLeQlD6" version="24.0.4" type="device">
  <diagram name="Страница — 1" id="axtO7MiDwB7ZcOT-fnJu">
    <mxGraphModel dx="1434" dy="1949" grid="1" gridSize="10" guides="1" tooltips="1" connect="1" arrows="1" fold="1" page="1" pageScale="1" pageWidth="827" pageHeight="1169" math="0" shadow="0">
      <root>
        <mxCell id="0" />
        <mxCell id="1" parent="0" />
        <mxCell id="cvTN4giLDe67Gb9vFkRT-2" style="edgeStyle=orthogonalEdgeStyle;rounded=0;orthogonalLoop=1;jettySize=auto;html=1;" edge="1" parent="1" source="cvTN4giLDe67Gb9vFkRT-1" target="cvTN4giLDe67Gb9vFkRT-3">
          <mxGeometry relative="1" as="geometry">
            <mxPoint x="388" y="-1020" as="targetPoint" />
          </mxGeometry>
        </mxCell>
        <mxCell id="cvTN4giLDe67Gb9vFkRT-1" value="&lt;span style=&quot;color: rgb(60, 64, 67); font-family: Roboto, Arial, sans-serif; font-size: 14px; letter-spacing: 0.2px; text-align: start;&quot;&gt;Create a flowchart that calculates shipping costs based on the weight of a package and the distance it needs to be shipped.&lt;/span&gt;" style="rounded=1;whiteSpace=wrap;html=1;" vertex="1" parent="1">
          <mxGeometry x="240" y="-1169" width="296" height="110" as="geometry" />
        </mxCell>
        <mxCell id="cvTN4giLDe67Gb9vFkRT-4" style="edgeStyle=orthogonalEdgeStyle;rounded=0;orthogonalLoop=1;jettySize=auto;html=1;" edge="1" parent="1" source="cvTN4giLDe67Gb9vFkRT-3" target="cvTN4giLDe67Gb9vFkRT-5">
          <mxGeometry relative="1" as="geometry">
            <mxPoint x="388" y="-920" as="targetPoint" />
          </mxGeometry>
        </mxCell>
        <mxCell id="cvTN4giLDe67Gb9vFkRT-3" value="int a;&lt;div&gt;int b;&lt;/div&gt;" style="shape=parallelogram;perimeter=parallelogramPerimeter;whiteSpace=wrap;html=1;fixedSize=1;" vertex="1" parent="1">
          <mxGeometry x="328" y="-1030" width="120" height="60" as="geometry" />
        </mxCell>
        <mxCell id="cvTN4giLDe67Gb9vFkRT-6" style="edgeStyle=orthogonalEdgeStyle;rounded=0;orthogonalLoop=1;jettySize=auto;html=1;" edge="1" parent="1" source="cvTN4giLDe67Gb9vFkRT-5">
          <mxGeometry relative="1" as="geometry">
            <mxPoint x="640" y="-840" as="targetPoint" />
          </mxGeometry>
        </mxCell>
        <mxCell id="cvTN4giLDe67Gb9vFkRT-8" value="false" style="edgeStyle=orthogonalEdgeStyle;rounded=0;orthogonalLoop=1;jettySize=auto;html=1;exitX=0.5;exitY=1;exitDx=0;exitDy=0;" edge="1" parent="1" source="cvTN4giLDe67Gb9vFkRT-5" target="cvTN4giLDe67Gb9vFkRT-9">
          <mxGeometry relative="1" as="geometry">
            <mxPoint x="388" y="-700" as="targetPoint" />
          </mxGeometry>
        </mxCell>
        <mxCell id="cvTN4giLDe67Gb9vFkRT-5" value="a &amp;gt; 0 &amp;amp;&amp;amp; a &amp;lt;=5 &amp;amp; b &amp;gt;= 1 &amp;amp;&amp;amp; b &amp;lt;= 5" style="rhombus;whiteSpace=wrap;html=1;" vertex="1" parent="1">
          <mxGeometry x="284" y="-920" width="208" height="160" as="geometry" />
        </mxCell>
        <mxCell id="cvTN4giLDe67Gb9vFkRT-7" value="5 Azn" style="shape=parallelogram;perimeter=parallelogramPerimeter;whiteSpace=wrap;html=1;fixedSize=1;" vertex="1" parent="1">
          <mxGeometry x="630" y="-870" width="120" height="60" as="geometry" />
        </mxCell>
        <mxCell id="cvTN4giLDe67Gb9vFkRT-10" value="true" style="edgeStyle=orthogonalEdgeStyle;rounded=0;orthogonalLoop=1;jettySize=auto;html=1;" edge="1" parent="1" source="cvTN4giLDe67Gb9vFkRT-9" target="cvTN4giLDe67Gb9vFkRT-11">
          <mxGeometry relative="1" as="geometry">
            <mxPoint x="630" y="-635" as="targetPoint" />
          </mxGeometry>
        </mxCell>
        <mxCell id="cvTN4giLDe67Gb9vFkRT-13" value="false" style="edgeStyle=orthogonalEdgeStyle;rounded=0;orthogonalLoop=1;jettySize=auto;html=1;" edge="1" parent="1" source="cvTN4giLDe67Gb9vFkRT-9" target="cvTN4giLDe67Gb9vFkRT-12">
          <mxGeometry relative="1" as="geometry" />
        </mxCell>
        <mxCell id="cvTN4giLDe67Gb9vFkRT-9" value="a &amp;gt; 5 &amp;amp;&amp;amp; a &amp;lt;=20 &amp;amp; b &amp;gt;= 1 &amp;amp; b &amp;lt;= 5" style="rhombus;whiteSpace=wrap;html=1;" vertex="1" parent="1">
          <mxGeometry x="272" y="-720" width="232" height="170" as="geometry" />
        </mxCell>
        <mxCell id="cvTN4giLDe67Gb9vFkRT-11" value="10 Azn" style="shape=parallelogram;perimeter=parallelogramPerimeter;whiteSpace=wrap;html=1;fixedSize=1;" vertex="1" parent="1">
          <mxGeometry x="610" y="-665" width="120" height="60" as="geometry" />
        </mxCell>
        <mxCell id="cvTN4giLDe67Gb9vFkRT-14" value="true" style="edgeStyle=orthogonalEdgeStyle;rounded=0;orthogonalLoop=1;jettySize=auto;html=1;" edge="1" parent="1" source="cvTN4giLDe67Gb9vFkRT-12" target="cvTN4giLDe67Gb9vFkRT-15">
          <mxGeometry relative="1" as="geometry">
            <mxPoint x="610" y="-415" as="targetPoint" />
          </mxGeometry>
        </mxCell>
        <mxCell id="cvTN4giLDe67Gb9vFkRT-17" value="false" style="edgeStyle=orthogonalEdgeStyle;rounded=0;orthogonalLoop=1;jettySize=auto;html=1;" edge="1" parent="1" source="cvTN4giLDe67Gb9vFkRT-12" target="cvTN4giLDe67Gb9vFkRT-16">
          <mxGeometry relative="1" as="geometry" />
        </mxCell>
        <mxCell id="cvTN4giLDe67Gb9vFkRT-12" value="a &amp;gt; 20 &amp;amp;&amp;amp; a &amp;lt;= 100 &amp;amp; b &amp;gt;= 1 &amp;amp;&amp;amp; b &amp;lt;= 5" style="rhombus;whiteSpace=wrap;html=1;" vertex="1" parent="1">
          <mxGeometry x="272" y="-510" width="232" height="190" as="geometry" />
        </mxCell>
        <mxCell id="cvTN4giLDe67Gb9vFkRT-15" value="20 Azn" style="shape=parallelogram;perimeter=parallelogramPerimeter;whiteSpace=wrap;html=1;fixedSize=1;" vertex="1" parent="1">
          <mxGeometry x="610" y="-445" width="120" height="60" as="geometry" />
        </mxCell>
        <mxCell id="cvTN4giLDe67Gb9vFkRT-18" value="true" style="edgeStyle=orthogonalEdgeStyle;rounded=0;orthogonalLoop=1;jettySize=auto;html=1;" edge="1" parent="1" source="cvTN4giLDe67Gb9vFkRT-16" target="cvTN4giLDe67Gb9vFkRT-19">
          <mxGeometry relative="1" as="geometry">
            <mxPoint x="620" y="-190" as="targetPoint" />
          </mxGeometry>
        </mxCell>
        <mxCell id="cvTN4giLDe67Gb9vFkRT-21" value="false" style="edgeStyle=orthogonalEdgeStyle;rounded=0;orthogonalLoop=1;jettySize=auto;html=1;" edge="1" parent="1" source="cvTN4giLDe67Gb9vFkRT-16" target="cvTN4giLDe67Gb9vFkRT-20">
          <mxGeometry relative="1" as="geometry" />
        </mxCell>
        <mxCell id="cvTN4giLDe67Gb9vFkRT-16" value="a &amp;gt; 100 &amp;amp; b &amp;gt;=1 &amp;amp;&amp;amp; b &amp;lt;= 5" style="rhombus;whiteSpace=wrap;html=1;" vertex="1" parent="1">
          <mxGeometry x="262" y="-280" width="252" height="200" as="geometry" />
        </mxCell>
        <mxCell id="cvTN4giLDe67Gb9vFkRT-19" value="50 Azn" style="shape=parallelogram;perimeter=parallelogramPerimeter;whiteSpace=wrap;html=1;fixedSize=1;" vertex="1" parent="1">
          <mxGeometry x="600" y="-210" width="120" height="60" as="geometry" />
        </mxCell>
        <mxCell id="cvTN4giLDe67Gb9vFkRT-22" value="true" style="edgeStyle=orthogonalEdgeStyle;rounded=0;orthogonalLoop=1;jettySize=auto;html=1;" edge="1" parent="1" source="cvTN4giLDe67Gb9vFkRT-20" target="cvTN4giLDe67Gb9vFkRT-23">
          <mxGeometry relative="1" as="geometry">
            <mxPoint x="610" y="55" as="targetPoint" />
          </mxGeometry>
        </mxCell>
        <mxCell id="cvTN4giLDe67Gb9vFkRT-25" value="false" style="edgeStyle=orthogonalEdgeStyle;rounded=0;orthogonalLoop=1;jettySize=auto;html=1;" edge="1" parent="1" source="cvTN4giLDe67Gb9vFkRT-20" target="cvTN4giLDe67Gb9vFkRT-24">
          <mxGeometry relative="1" as="geometry" />
        </mxCell>
        <mxCell id="cvTN4giLDe67Gb9vFkRT-20" value="a &amp;gt; 0 &amp;amp;&amp;amp; a &amp;lt;=5 &amp;amp; b &amp;gt; 5 &amp;amp;&amp;amp; b &amp;lt;= 20" style="rhombus;whiteSpace=wrap;html=1;" vertex="1" parent="1">
          <mxGeometry x="257" y="-50" width="262" height="210" as="geometry" />
        </mxCell>
        <mxCell id="cvTN4giLDe67Gb9vFkRT-23" value="15 Azn" style="shape=parallelogram;perimeter=parallelogramPerimeter;whiteSpace=wrap;html=1;fixedSize=1;" vertex="1" parent="1">
          <mxGeometry x="600" y="25" width="120" height="60" as="geometry" />
        </mxCell>
        <mxCell id="cvTN4giLDe67Gb9vFkRT-26" value="true" style="edgeStyle=orthogonalEdgeStyle;rounded=0;orthogonalLoop=1;jettySize=auto;html=1;" edge="1" parent="1" source="cvTN4giLDe67Gb9vFkRT-24" target="cvTN4giLDe67Gb9vFkRT-27">
          <mxGeometry relative="1" as="geometry">
            <mxPoint x="620" y="295" as="targetPoint" />
          </mxGeometry>
        </mxCell>
        <mxCell id="cvTN4giLDe67Gb9vFkRT-32" value="false" style="edgeStyle=orthogonalEdgeStyle;rounded=0;orthogonalLoop=1;jettySize=auto;html=1;" edge="1" parent="1" source="cvTN4giLDe67Gb9vFkRT-24" target="cvTN4giLDe67Gb9vFkRT-28">
          <mxGeometry relative="1" as="geometry" />
        </mxCell>
        <mxCell id="cvTN4giLDe67Gb9vFkRT-24" value="a &amp;gt; 5 &amp;amp;&amp;amp; a &amp;lt;= 20 &amp;amp; b &amp;gt;5 &amp;amp;&amp;amp; b &amp;lt;= 20" style="rhombus;whiteSpace=wrap;html=1;" vertex="1" parent="1">
          <mxGeometry x="247" y="190" width="282" height="210" as="geometry" />
        </mxCell>
        <mxCell id="cvTN4giLDe67Gb9vFkRT-27" value="25 Azn" style="shape=parallelogram;perimeter=parallelogramPerimeter;whiteSpace=wrap;html=1;fixedSize=1;" vertex="1" parent="1">
          <mxGeometry x="600" y="267.5" width="120" height="55" as="geometry" />
        </mxCell>
        <mxCell id="cvTN4giLDe67Gb9vFkRT-29" value="true" style="edgeStyle=orthogonalEdgeStyle;rounded=0;orthogonalLoop=1;jettySize=auto;html=1;" edge="1" parent="1" source="cvTN4giLDe67Gb9vFkRT-28" target="cvTN4giLDe67Gb9vFkRT-30">
          <mxGeometry relative="1" as="geometry">
            <mxPoint x="620" y="535" as="targetPoint" />
          </mxGeometry>
        </mxCell>
        <mxCell id="cvTN4giLDe67Gb9vFkRT-31" value="false" style="edgeStyle=orthogonalEdgeStyle;rounded=0;orthogonalLoop=1;jettySize=auto;html=1;" edge="1" parent="1" source="cvTN4giLDe67Gb9vFkRT-28">
          <mxGeometry relative="1" as="geometry">
            <mxPoint x="388" y="670" as="targetPoint" />
          </mxGeometry>
        </mxCell>
        <mxCell id="cvTN4giLDe67Gb9vFkRT-28" value="a &amp;gt; 20 &amp;amp;&amp;amp; a &amp;lt;=100 &amp;amp; b &amp;gt; 5 &amp;amp;&amp;amp; b &amp;lt;= 20" style="rhombus;whiteSpace=wrap;html=1;" vertex="1" parent="1">
          <mxGeometry x="262" y="430" width="252" height="210" as="geometry" />
        </mxCell>
        <mxCell id="cvTN4giLDe67Gb9vFkRT-30" value="35 Azn" style="shape=parallelogram;perimeter=parallelogramPerimeter;whiteSpace=wrap;html=1;fixedSize=1;" vertex="1" parent="1">
          <mxGeometry x="600" y="505" width="120" height="60" as="geometry" />
        </mxCell>
        <mxCell id="cvTN4giLDe67Gb9vFkRT-34" value="true" style="edgeStyle=orthogonalEdgeStyle;rounded=0;orthogonalLoop=1;jettySize=auto;html=1;" edge="1" parent="1" source="cvTN4giLDe67Gb9vFkRT-33" target="cvTN4giLDe67Gb9vFkRT-35">
          <mxGeometry relative="1" as="geometry">
            <mxPoint x="620" y="780" as="targetPoint" />
          </mxGeometry>
        </mxCell>
        <mxCell id="cvTN4giLDe67Gb9vFkRT-38" value="false" style="edgeStyle=orthogonalEdgeStyle;rounded=0;orthogonalLoop=1;jettySize=auto;html=1;" edge="1" parent="1" source="cvTN4giLDe67Gb9vFkRT-33" target="cvTN4giLDe67Gb9vFkRT-37">
          <mxGeometry relative="1" as="geometry" />
        </mxCell>
        <mxCell id="cvTN4giLDe67Gb9vFkRT-33" value="a &amp;gt; 100 &amp;amp; b &amp;gt; 5 &amp;amp;&amp;amp; b &amp;lt;= 20" style="rhombus;whiteSpace=wrap;html=1;" vertex="1" parent="1">
          <mxGeometry x="257" y="670" width="262" height="220" as="geometry" />
        </mxCell>
        <mxCell id="cvTN4giLDe67Gb9vFkRT-35" value="100 Azn" style="shape=parallelogram;perimeter=parallelogramPerimeter;whiteSpace=wrap;html=1;fixedSize=1;" vertex="1" parent="1">
          <mxGeometry x="600" y="750" width="120" height="60" as="geometry" />
        </mxCell>
        <mxCell id="cvTN4giLDe67Gb9vFkRT-39" value="true" style="edgeStyle=orthogonalEdgeStyle;rounded=0;orthogonalLoop=1;jettySize=auto;html=1;" edge="1" parent="1" source="cvTN4giLDe67Gb9vFkRT-37" target="cvTN4giLDe67Gb9vFkRT-40">
          <mxGeometry relative="1" as="geometry">
            <mxPoint x="660" y="1050" as="targetPoint" />
          </mxGeometry>
        </mxCell>
        <mxCell id="cvTN4giLDe67Gb9vFkRT-37" value="b &amp;gt; 20" style="rhombus;whiteSpace=wrap;html=1;" vertex="1" parent="1">
          <mxGeometry x="252" y="940" width="272" height="220" as="geometry" />
        </mxCell>
        <mxCell id="cvTN4giLDe67Gb9vFkRT-40" value="&#xa;&lt;span style=&quot;color: rgb(60, 64, 67); font-family: Roboto, Arial, sans-serif; font-size: 14px; font-style: normal; font-variant-ligatures: normal; font-variant-caps: normal; font-weight: 400; letter-spacing: 0.2px; orphans: 2; text-align: start; text-indent: 0px; text-transform: none; widows: 2; word-spacing: 0px; -webkit-text-stroke-width: 0px; white-space: normal; text-decoration-thickness: initial; text-decoration-style: initial; text-decoration-color: initial; display: inline !important; float: none;&quot;&gt;We don&#39;t have shipping services for such distances yet&lt;/span&gt;&#xa;&#xa;" style="shape=document;whiteSpace=wrap;html=1;boundedLbl=1;" vertex="1" parent="1">
          <mxGeometry x="610" y="975" width="280" height="150" as="geometry" />
        </mxCell>
        <mxCell id="cvTN4giLDe67Gb9vFkRT-41" value="END" style="rounded=1;whiteSpace=wrap;html=1;" vertex="1" parent="1">
          <mxGeometry x="960" y="-80" width="330" height="180" as="geometry" />
        </mxCell>
        <mxCell id="cvTN4giLDe67Gb9vFkRT-42" style="edgeStyle=orthogonalEdgeStyle;rounded=0;orthogonalLoop=1;jettySize=auto;html=1;entryX=0.897;entryY=-0.006;entryDx=0;entryDy=0;entryPerimeter=0;" edge="1" parent="1" source="cvTN4giLDe67Gb9vFkRT-7" target="cvTN4giLDe67Gb9vFkRT-41">
          <mxGeometry relative="1" as="geometry" />
        </mxCell>
        <mxCell id="cvTN4giLDe67Gb9vFkRT-43" style="edgeStyle=orthogonalEdgeStyle;rounded=0;orthogonalLoop=1;jettySize=auto;html=1;entryX=0.788;entryY=-0.006;entryDx=0;entryDy=0;entryPerimeter=0;" edge="1" parent="1" source="cvTN4giLDe67Gb9vFkRT-11" target="cvTN4giLDe67Gb9vFkRT-41">
          <mxGeometry relative="1" as="geometry" />
        </mxCell>
        <mxCell id="cvTN4giLDe67Gb9vFkRT-44" style="edgeStyle=orthogonalEdgeStyle;rounded=0;orthogonalLoop=1;jettySize=auto;html=1;entryX=0.709;entryY=-0.011;entryDx=0;entryDy=0;entryPerimeter=0;" edge="1" parent="1" source="cvTN4giLDe67Gb9vFkRT-15" target="cvTN4giLDe67Gb9vFkRT-41">
          <mxGeometry relative="1" as="geometry" />
        </mxCell>
        <mxCell id="cvTN4giLDe67Gb9vFkRT-45" style="edgeStyle=orthogonalEdgeStyle;rounded=0;orthogonalLoop=1;jettySize=auto;html=1;entryX=0.63;entryY=0.006;entryDx=0;entryDy=0;entryPerimeter=0;" edge="1" parent="1" source="cvTN4giLDe67Gb9vFkRT-19" target="cvTN4giLDe67Gb9vFkRT-41">
          <mxGeometry relative="1" as="geometry" />
        </mxCell>
        <mxCell id="cvTN4giLDe67Gb9vFkRT-46" style="edgeStyle=orthogonalEdgeStyle;rounded=0;orthogonalLoop=1;jettySize=auto;html=1;entryX=0;entryY=0.75;entryDx=0;entryDy=0;" edge="1" parent="1" source="cvTN4giLDe67Gb9vFkRT-23" target="cvTN4giLDe67Gb9vFkRT-41">
          <mxGeometry relative="1" as="geometry">
            <mxPoint x="950" y="55" as="targetPoint" />
          </mxGeometry>
        </mxCell>
        <mxCell id="cvTN4giLDe67Gb9vFkRT-47" style="edgeStyle=orthogonalEdgeStyle;rounded=0;orthogonalLoop=1;jettySize=auto;html=1;entryX=0.145;entryY=0.994;entryDx=0;entryDy=0;entryPerimeter=0;" edge="1" parent="1" source="cvTN4giLDe67Gb9vFkRT-27" target="cvTN4giLDe67Gb9vFkRT-41">
          <mxGeometry relative="1" as="geometry" />
        </mxCell>
        <mxCell id="cvTN4giLDe67Gb9vFkRT-48" style="edgeStyle=orthogonalEdgeStyle;rounded=0;orthogonalLoop=1;jettySize=auto;html=1;entryX=0.352;entryY=1.006;entryDx=0;entryDy=0;entryPerimeter=0;" edge="1" parent="1" source="cvTN4giLDe67Gb9vFkRT-30" target="cvTN4giLDe67Gb9vFkRT-41">
          <mxGeometry relative="1" as="geometry" />
        </mxCell>
        <mxCell id="cvTN4giLDe67Gb9vFkRT-49" style="edgeStyle=orthogonalEdgeStyle;rounded=0;orthogonalLoop=1;jettySize=auto;html=1;entryX=0.633;entryY=0.994;entryDx=0;entryDy=0;entryPerimeter=0;" edge="1" parent="1" source="cvTN4giLDe67Gb9vFkRT-35" target="cvTN4giLDe67Gb9vFkRT-41">
          <mxGeometry relative="1" as="geometry" />
        </mxCell>
        <mxCell id="cvTN4giLDe67Gb9vFkRT-50" style="edgeStyle=orthogonalEdgeStyle;rounded=0;orthogonalLoop=1;jettySize=auto;html=1;entryX=0.87;entryY=1.006;entryDx=0;entryDy=0;entryPerimeter=0;" edge="1" parent="1" source="cvTN4giLDe67Gb9vFkRT-40" target="cvTN4giLDe67Gb9vFkRT-41">
          <mxGeometry relative="1" as="geometry" />
        </mxCell>
      </root>
    </mxGraphModel>
  </diagram>
</mxfile>
